<mxfile host="app.diagrams.net" modified="2023-06-02T06:45:22.498Z" agent="Mozilla/5.0 (Macintosh; Intel Mac OS X 10_15_7) AppleWebKit/537.36 (KHTML, like Gecko) Chrome/109.0.0.0 Safari/537.36" etag="xj2D0ovZcrVhu7bXL-WE" version="21.3.7" type="github">
  <diagram id="C5RBs43oDa-KdzZeNtuy" name="Page-1">
    <mxGraphModel dx="2074" dy="1099" grid="1" gridSize="10" guides="1" tooltips="1" connect="1" arrows="1" fold="1" page="1" pageScale="1" pageWidth="827" pageHeight="1169" math="0" shadow="0">
      <root>
        <mxCell id="WIyWlLk6GJQsqaUBKTNV-0" />
        <mxCell id="WIyWlLk6GJQsqaUBKTNV-1" parent="WIyWlLk6GJQsqaUBKTNV-0" />
        <mxCell id="WIyWlLk6GJQsqaUBKTNV-2" value="" style="rounded=0;html=1;jettySize=auto;orthogonalLoop=1;fontSize=11;endArrow=block;endFill=0;endSize=8;strokeWidth=1;shadow=0;labelBackgroundColor=none;edgeStyle=orthogonalEdgeStyle;" parent="WIyWlLk6GJQsqaUBKTNV-1" target="WIyWlLk6GJQsqaUBKTNV-6" edge="1">
          <mxGeometry relative="1" as="geometry">
            <mxPoint x="110" y="171" as="sourcePoint" />
          </mxGeometry>
        </mxCell>
        <mxCell id="WIyWlLk6GJQsqaUBKTNV-4" value="No" style="rounded=0;html=1;jettySize=auto;orthogonalLoop=1;fontSize=11;endArrow=block;endFill=0;endSize=8;strokeWidth=1;shadow=0;labelBackgroundColor=none;edgeStyle=orthogonalEdgeStyle;" parent="WIyWlLk6GJQsqaUBKTNV-1" source="WIyWlLk6GJQsqaUBKTNV-6" edge="1">
          <mxGeometry x="-0.25" y="20" relative="1" as="geometry">
            <mxPoint as="offset" />
            <mxPoint x="110" y="341" as="targetPoint" />
          </mxGeometry>
        </mxCell>
        <mxCell id="WIyWlLk6GJQsqaUBKTNV-5" value="Yes" style="edgeStyle=orthogonalEdgeStyle;rounded=0;html=1;jettySize=auto;orthogonalLoop=1;fontSize=11;endArrow=block;endFill=0;endSize=8;strokeWidth=1;shadow=0;labelBackgroundColor=none;entryX=0;entryY=0.5;entryDx=0;entryDy=0;" parent="WIyWlLk6GJQsqaUBKTNV-1" edge="1">
          <mxGeometry x="0.0271" y="10" relative="1" as="geometry">
            <mxPoint as="offset" />
            <mxPoint x="161" y="260" as="sourcePoint" />
            <mxPoint x="216" y="260" as="targetPoint" />
          </mxGeometry>
        </mxCell>
        <mxCell id="WIyWlLk6GJQsqaUBKTNV-6" value="JWT&lt;br&gt;exists?" style="rhombus;whiteSpace=wrap;html=1;shadow=0;fontFamily=Helvetica;fontSize=12;align=center;strokeWidth=1;spacing=6;spacingTop=-4;" parent="WIyWlLk6GJQsqaUBKTNV-1" vertex="1">
          <mxGeometry x="60" y="221" width="100" height="80" as="geometry" />
        </mxCell>
        <mxCell id="WIyWlLk6GJQsqaUBKTNV-8" value="" style="rounded=0;html=1;jettySize=auto;orthogonalLoop=1;fontSize=11;endArrow=block;endFill=0;endSize=8;strokeWidth=1;shadow=0;labelBackgroundColor=none;edgeStyle=orthogonalEdgeStyle;" parent="WIyWlLk6GJQsqaUBKTNV-1" edge="1">
          <mxGeometry x="-0.1556" y="20" relative="1" as="geometry">
            <mxPoint as="offset" />
            <mxPoint x="110" y="379" as="sourcePoint" />
            <mxPoint x="110" y="424" as="targetPoint" />
          </mxGeometry>
        </mxCell>
        <mxCell id="WIyWlLk6GJQsqaUBKTNV-11" value="Refresh JWT" style="rounded=1;whiteSpace=wrap;html=1;fontSize=12;glass=0;strokeWidth=1;shadow=0;" parent="WIyWlLk6GJQsqaUBKTNV-1" vertex="1">
          <mxGeometry x="366" y="356" width="120" height="40" as="geometry" />
        </mxCell>
        <mxCell id="J-SlRhvXGQLOrrwX8WgV-0" value="42-Oauth Login" style="ellipse;whiteSpace=wrap;html=1;" vertex="1" parent="WIyWlLk6GJQsqaUBKTNV-1">
          <mxGeometry x="50" y="120" width="120" height="50" as="geometry" />
        </mxCell>
        <mxCell id="J-SlRhvXGQLOrrwX8WgV-2" value="Yes" style="edgeStyle=orthogonalEdgeStyle;rounded=0;html=1;jettySize=auto;orthogonalLoop=1;fontSize=11;endArrow=block;endFill=0;endSize=8;strokeWidth=1;shadow=0;labelBackgroundColor=none;" edge="1" parent="WIyWlLk6GJQsqaUBKTNV-1">
          <mxGeometry y="10" relative="1" as="geometry">
            <mxPoint as="offset" />
            <mxPoint x="315" y="258" as="sourcePoint" />
            <mxPoint x="365" y="258" as="targetPoint" />
          </mxGeometry>
        </mxCell>
        <mxCell id="J-SlRhvXGQLOrrwX8WgV-3" value="JWT&lt;br&gt;validate?" style="rhombus;whiteSpace=wrap;html=1;shadow=0;fontFamily=Helvetica;fontSize=12;align=center;strokeWidth=1;spacing=6;spacingTop=-4;" vertex="1" parent="WIyWlLk6GJQsqaUBKTNV-1">
          <mxGeometry x="215" y="220" width="100" height="80" as="geometry" />
        </mxCell>
        <mxCell id="J-SlRhvXGQLOrrwX8WgV-4" value="Pong Login" style="ellipse;whiteSpace=wrap;html=1;" vertex="1" parent="WIyWlLk6GJQsqaUBKTNV-1">
          <mxGeometry x="366" y="234" width="120" height="50" as="geometry" />
        </mxCell>
        <mxCell id="J-SlRhvXGQLOrrwX8WgV-5" value="No" style="rounded=0;html=1;jettySize=auto;orthogonalLoop=1;fontSize=11;endArrow=block;endFill=0;endSize=8;strokeWidth=1;shadow=0;labelBackgroundColor=none;edgeStyle=orthogonalEdgeStyle;" edge="1" parent="WIyWlLk6GJQsqaUBKTNV-1" target="J-SlRhvXGQLOrrwX8WgV-6">
          <mxGeometry x="-0.25" y="20" relative="1" as="geometry">
            <mxPoint as="offset" />
            <mxPoint x="265" y="300" as="sourcePoint" />
          </mxGeometry>
        </mxCell>
        <mxCell id="J-SlRhvXGQLOrrwX8WgV-6" value="JWT&lt;br&gt;expired?" style="rhombus;whiteSpace=wrap;html=1;shadow=0;fontFamily=Helvetica;fontSize=12;align=center;strokeWidth=1;spacing=6;spacingTop=-4;" vertex="1" parent="WIyWlLk6GJQsqaUBKTNV-1">
          <mxGeometry x="215" y="336" width="100" height="80" as="geometry" />
        </mxCell>
        <mxCell id="J-SlRhvXGQLOrrwX8WgV-10" value="No" style="rounded=0;html=1;jettySize=auto;orthogonalLoop=1;fontSize=11;endArrow=block;endFill=0;endSize=8;strokeWidth=1;shadow=0;labelBackgroundColor=none;edgeStyle=orthogonalEdgeStyle;" edge="1" parent="WIyWlLk6GJQsqaUBKTNV-1">
          <mxGeometry x="-0.25" y="20" relative="1" as="geometry">
            <mxPoint as="offset" />
            <mxPoint x="265" y="416" as="sourcePoint" />
            <mxPoint x="265" y="456" as="targetPoint" />
          </mxGeometry>
        </mxCell>
        <mxCell id="J-SlRhvXGQLOrrwX8WgV-13" value="Yes" style="edgeStyle=orthogonalEdgeStyle;rounded=0;html=1;jettySize=auto;orthogonalLoop=1;fontSize=11;endArrow=block;endFill=0;endSize=8;strokeWidth=1;shadow=0;labelBackgroundColor=none;" edge="1" parent="WIyWlLk6GJQsqaUBKTNV-1">
          <mxGeometry y="10" relative="1" as="geometry">
            <mxPoint as="offset" />
            <mxPoint x="315" y="375" as="sourcePoint" />
            <mxPoint x="365" y="375" as="targetPoint" />
          </mxGeometry>
        </mxCell>
        <mxCell id="J-SlRhvXGQLOrrwX8WgV-20" value="" style="edgeStyle=orthogonalEdgeStyle;rounded=0;html=1;jettySize=auto;orthogonalLoop=1;fontSize=11;endArrow=block;endFill=0;endSize=8;strokeWidth=1;shadow=0;labelBackgroundColor=none;" edge="1" parent="WIyWlLk6GJQsqaUBKTNV-1">
          <mxGeometry y="10" relative="1" as="geometry">
            <mxPoint as="offset" />
            <mxPoint x="487" y="378" as="sourcePoint" />
            <mxPoint x="537" y="378" as="targetPoint" />
          </mxGeometry>
        </mxCell>
        <mxCell id="J-SlRhvXGQLOrrwX8WgV-22" value="JWT&lt;br&gt;refreshed?" style="rhombus;whiteSpace=wrap;html=1;shadow=0;fontFamily=Helvetica;fontSize=12;align=center;strokeWidth=1;spacing=6;spacingTop=-4;" vertex="1" parent="WIyWlLk6GJQsqaUBKTNV-1">
          <mxGeometry x="536" y="336" width="100" height="80" as="geometry" />
        </mxCell>
        <mxCell id="J-SlRhvXGQLOrrwX8WgV-23" value="Yes" style="edgeStyle=orthogonalEdgeStyle;rounded=0;html=1;jettySize=auto;orthogonalLoop=1;fontSize=11;endArrow=block;endFill=0;endSize=8;strokeWidth=1;shadow=0;labelBackgroundColor=none;" edge="1" parent="WIyWlLk6GJQsqaUBKTNV-1">
          <mxGeometry y="10" relative="1" as="geometry">
            <mxPoint as="offset" />
            <mxPoint x="636" y="375" as="sourcePoint" />
            <mxPoint x="686" y="375" as="targetPoint" />
          </mxGeometry>
        </mxCell>
        <mxCell id="J-SlRhvXGQLOrrwX8WgV-24" value="Pong Login" style="ellipse;whiteSpace=wrap;html=1;" vertex="1" parent="WIyWlLk6GJQsqaUBKTNV-1">
          <mxGeometry x="687" y="351" width="120" height="50" as="geometry" />
        </mxCell>
        <mxCell id="J-SlRhvXGQLOrrwX8WgV-26" value="No" style="rounded=0;html=1;jettySize=auto;orthogonalLoop=1;fontSize=11;endArrow=block;endFill=0;endSize=8;strokeWidth=1;shadow=0;labelBackgroundColor=none;edgeStyle=orthogonalEdgeStyle;" edge="1" parent="WIyWlLk6GJQsqaUBKTNV-1">
          <mxGeometry x="-0.25" y="20" relative="1" as="geometry">
            <mxPoint as="offset" />
            <mxPoint x="586" y="417" as="sourcePoint" />
            <mxPoint x="586" y="457" as="targetPoint" />
          </mxGeometry>
        </mxCell>
        <mxCell id="J-SlRhvXGQLOrrwX8WgV-28" value="Redirect to&lt;br&gt;42-Oauth Login" style="ellipse;whiteSpace=wrap;html=1;" vertex="1" parent="WIyWlLk6GJQsqaUBKTNV-1">
          <mxGeometry x="205" y="536" width="120" height="50" as="geometry" />
        </mxCell>
        <mxCell id="J-SlRhvXGQLOrrwX8WgV-29" value="Remove all tokens&lt;br&gt;from local storage" style="rounded=1;whiteSpace=wrap;html=1;fontSize=12;glass=0;strokeWidth=1;shadow=0;" vertex="1" parent="WIyWlLk6GJQsqaUBKTNV-1">
          <mxGeometry x="205" y="458" width="120" height="40" as="geometry" />
        </mxCell>
        <mxCell id="J-SlRhvXGQLOrrwX8WgV-30" value="" style="rounded=0;html=1;jettySize=auto;orthogonalLoop=1;fontSize=11;endArrow=block;endFill=0;endSize=8;strokeWidth=1;shadow=0;labelBackgroundColor=none;edgeStyle=orthogonalEdgeStyle;" edge="1" parent="WIyWlLk6GJQsqaUBKTNV-1">
          <mxGeometry x="-0.25" y="20" relative="1" as="geometry">
            <mxPoint as="offset" />
            <mxPoint x="266" y="498" as="sourcePoint" />
            <mxPoint x="266" y="538" as="targetPoint" />
          </mxGeometry>
        </mxCell>
        <mxCell id="J-SlRhvXGQLOrrwX8WgV-31" value="Redirect to&lt;br&gt;42-Oauth Login" style="ellipse;whiteSpace=wrap;html=1;" vertex="1" parent="WIyWlLk6GJQsqaUBKTNV-1">
          <mxGeometry x="526" y="536" width="120" height="50" as="geometry" />
        </mxCell>
        <mxCell id="J-SlRhvXGQLOrrwX8WgV-32" value="Remove all tokens&lt;br&gt;from local storage" style="rounded=1;whiteSpace=wrap;html=1;fontSize=12;glass=0;strokeWidth=1;shadow=0;" vertex="1" parent="WIyWlLk6GJQsqaUBKTNV-1">
          <mxGeometry x="526" y="458" width="120" height="40" as="geometry" />
        </mxCell>
        <mxCell id="J-SlRhvXGQLOrrwX8WgV-33" value="" style="rounded=0;html=1;jettySize=auto;orthogonalLoop=1;fontSize=11;endArrow=block;endFill=0;endSize=8;strokeWidth=1;shadow=0;labelBackgroundColor=none;edgeStyle=orthogonalEdgeStyle;" edge="1" parent="WIyWlLk6GJQsqaUBKTNV-1">
          <mxGeometry x="-0.25" y="20" relative="1" as="geometry">
            <mxPoint as="offset" />
            <mxPoint x="587" y="498" as="sourcePoint" />
            <mxPoint x="587" y="538" as="targetPoint" />
          </mxGeometry>
        </mxCell>
        <mxCell id="J-SlRhvXGQLOrrwX8WgV-34" value="Issue 42 token" style="rounded=1;whiteSpace=wrap;html=1;fontSize=12;glass=0;strokeWidth=1;shadow=0;" vertex="1" parent="WIyWlLk6GJQsqaUBKTNV-1">
          <mxGeometry x="50" y="339" width="120" height="40" as="geometry" />
        </mxCell>
        <mxCell id="J-SlRhvXGQLOrrwX8WgV-35" value="" style="rounded=0;html=1;jettySize=auto;orthogonalLoop=1;fontSize=11;endArrow=block;endFill=0;endSize=8;strokeWidth=1;shadow=0;labelBackgroundColor=none;edgeStyle=orthogonalEdgeStyle;entryX=0.5;entryY=0;entryDx=0;entryDy=0;" edge="1" parent="WIyWlLk6GJQsqaUBKTNV-1" target="J-SlRhvXGQLOrrwX8WgV-38">
          <mxGeometry x="-0.1556" y="20" relative="1" as="geometry">
            <mxPoint as="offset" />
            <mxPoint x="110" y="460" as="sourcePoint" />
            <mxPoint x="110" y="505" as="targetPoint" />
          </mxGeometry>
        </mxCell>
        <mxCell id="J-SlRhvXGQLOrrwX8WgV-36" value="Authorization" style="rounded=1;whiteSpace=wrap;html=1;fontSize=12;glass=0;strokeWidth=1;shadow=0;" vertex="1" parent="WIyWlLk6GJQsqaUBKTNV-1">
          <mxGeometry x="50" y="423" width="120" height="40" as="geometry" />
        </mxCell>
        <mxCell id="J-SlRhvXGQLOrrwX8WgV-37" value="" style="rounded=0;html=1;jettySize=auto;orthogonalLoop=1;fontSize=11;endArrow=block;endFill=0;endSize=8;strokeWidth=1;shadow=0;labelBackgroundColor=none;edgeStyle=orthogonalEdgeStyle;entryX=0.5;entryY=0;entryDx=0;entryDy=0;" edge="1" parent="WIyWlLk6GJQsqaUBKTNV-1" target="J-SlRhvXGQLOrrwX8WgV-39">
          <mxGeometry x="-0.1556" y="20" relative="1" as="geometry">
            <mxPoint as="offset" />
            <mxPoint x="110" y="547" as="sourcePoint" />
            <mxPoint x="110" y="592" as="targetPoint" />
          </mxGeometry>
        </mxCell>
        <mxCell id="J-SlRhvXGQLOrrwX8WgV-38" value="Call 42 API&lt;br&gt;to get user profile" style="rounded=1;whiteSpace=wrap;html=1;fontSize=12;glass=0;strokeWidth=1;shadow=0;" vertex="1" parent="WIyWlLk6GJQsqaUBKTNV-1">
          <mxGeometry x="50" y="512" width="120" height="40" as="geometry" />
        </mxCell>
        <mxCell id="J-SlRhvXGQLOrrwX8WgV-39" value="Pong&lt;br&gt;member?" style="rhombus;whiteSpace=wrap;html=1;shadow=0;fontFamily=Helvetica;fontSize=12;align=center;strokeWidth=1;spacing=6;spacingTop=-4;" vertex="1" parent="WIyWlLk6GJQsqaUBKTNV-1">
          <mxGeometry x="60" y="599" width="100" height="80" as="geometry" />
        </mxCell>
        <mxCell id="J-SlRhvXGQLOrrwX8WgV-40" value="Yes" style="edgeStyle=orthogonalEdgeStyle;rounded=0;html=1;jettySize=auto;orthogonalLoop=1;fontSize=11;endArrow=block;endFill=0;endSize=8;strokeWidth=1;shadow=0;labelBackgroundColor=none;entryX=0;entryY=0.5;entryDx=0;entryDy=0;" edge="1" parent="WIyWlLk6GJQsqaUBKTNV-1" target="J-SlRhvXGQLOrrwX8WgV-43">
          <mxGeometry x="-0.2852" y="9" relative="1" as="geometry">
            <mxPoint as="offset" />
            <mxPoint x="160" y="639" as="sourcePoint" />
            <mxPoint x="210" y="639" as="targetPoint" />
          </mxGeometry>
        </mxCell>
        <mxCell id="J-SlRhvXGQLOrrwX8WgV-41" value="No" style="rounded=0;html=1;jettySize=auto;orthogonalLoop=1;fontSize=11;endArrow=block;endFill=0;endSize=8;strokeWidth=1;shadow=0;labelBackgroundColor=none;edgeStyle=orthogonalEdgeStyle;entryX=0.5;entryY=0;entryDx=0;entryDy=0;" edge="1" parent="WIyWlLk6GJQsqaUBKTNV-1" target="J-SlRhvXGQLOrrwX8WgV-42">
          <mxGeometry x="-0.25" y="20" relative="1" as="geometry">
            <mxPoint as="offset" />
            <mxPoint x="110" y="676" as="sourcePoint" />
            <mxPoint x="110" y="716" as="targetPoint" />
          </mxGeometry>
        </mxCell>
        <mxCell id="J-SlRhvXGQLOrrwX8WgV-42" value="Redirect to&lt;br&gt;signup page" style="ellipse;whiteSpace=wrap;html=1;" vertex="1" parent="WIyWlLk6GJQsqaUBKTNV-1">
          <mxGeometry x="50" y="720" width="120" height="50" as="geometry" />
        </mxCell>
        <mxCell id="J-SlRhvXGQLOrrwX8WgV-43" value="Issue JWT" style="rounded=1;whiteSpace=wrap;html=1;fontSize=12;glass=0;strokeWidth=1;shadow=0;" vertex="1" parent="WIyWlLk6GJQsqaUBKTNV-1">
          <mxGeometry x="215" y="619" width="120" height="40" as="geometry" />
        </mxCell>
        <mxCell id="J-SlRhvXGQLOrrwX8WgV-44" value="" style="edgeStyle=orthogonalEdgeStyle;rounded=0;html=1;jettySize=auto;orthogonalLoop=1;fontSize=11;endArrow=block;endFill=0;endSize=8;strokeWidth=1;shadow=0;labelBackgroundColor=none;" edge="1" parent="WIyWlLk6GJQsqaUBKTNV-1">
          <mxGeometry y="10" relative="1" as="geometry">
            <mxPoint as="offset" />
            <mxPoint x="335" y="640" as="sourcePoint" />
            <mxPoint x="385" y="640" as="targetPoint" />
          </mxGeometry>
        </mxCell>
        <mxCell id="J-SlRhvXGQLOrrwX8WgV-45" value="Pong Login" style="ellipse;whiteSpace=wrap;html=1;" vertex="1" parent="WIyWlLk6GJQsqaUBKTNV-1">
          <mxGeometry x="385" y="615" width="120" height="50" as="geometry" />
        </mxCell>
      </root>
    </mxGraphModel>
  </diagram>
</mxfile>
